# xmcd
#
# Track frame offsets:
#  150
#  19727
#  37855
#  54052
#  77800
#  100460
#  123627
#  139622
#  154635
#  168570
#  188617
#  213630
#
# Disc length: 3105 seconds
#
# Revision: 0
# Processed by: cddbd v1.5.1PL0 Copyright (c) Steve Scherf et al.
# Submitted via: Collectorz.com Music Collector 6.9
#
DISCID=970c1f0c
DTITLE=Michael Kroll - Salt
DYEAR=1997
DGENRE=Country, Traditional 
TTITLE0=March
TTITLE1=Ghost Of Pride
TTITLE2=Salt
TTITLE3=Heavier
TTITLE4=Anna Tomorrow
TTITLE5=Those Tears
TTITLE6=Five Rainy Days
TTITLE7=Secret Afternoon
TTITLE8=Long, Low Light
TTITLE9=Deeper Inside
TTITLE10=Peace With Honor
TTITLE11=Gospel
EXTD=
EXTT0=
EXTT1=
EXTT2=
EXTT3=
EXTT4=
EXTT5=
EXTT6=
EXTT7=
EXTT8=
EXTT9=
EXTT10=
EXTT11=
PLAYORDER=
